<svg width="126" height="51" viewBox="0 0 126 51" fill="none" xmlns="http://www.w3.org/2000/svg">
<path d="M20.4756 16.3462H9.4834V21.359H20.4756V16.3462Z" fill="#FFE9EC"/>
<path d="M9.48359 5.01283V0H0.862305V39.2307H9.48362L9.48359 21.359V16.3461V5.01283Z" fill="#FFE9EC"/>
<path d="M20.4756 0H9.4834V5.01283H20.4756V0Z" fill="#FFE9EC"/>
<path d="M29.097 21.359V0H20.4756V21.359H29.097Z" fill="#FFE9EC"/>
<path d="M42.2445 31.3846H34.0542V0H42.2444L42.2445 31.3846Z" fill="#FFE9EC"/>
<path d="M34.0542 31.3846H42.2445L42.2444 39.2308H34.0542V31.3846Z" fill="#FFE9EC"/>
<path d="M55.1763 30.2949V39.2307H51.2966H46.7705V30.2949H55.1763Z" fill="#FFE9EC"/>
<path d="M46.7705 0V21.359H55.1763V0H46.7705Z" fill="#FFE9EC"/>
<path d="M55.1763 30.2949H63.7975V21.359H55.1763V30.2949Z" fill="#FFE9EC"/>
<path d="M63.7974 21.359V0H72.4187V21.359H63.7974Z" fill="#FFE9EC"/>
<path d="M63.7974 30.2949H72.4187V39.2307H63.7974V30.2949Z" fill="#FFE9EC"/>
<path d="M98.4985 15.6923V23.1027H91.6016V15.6923H98.4985Z" fill="#FFE9EC"/>
<path d="M111.215 0H102.809V7.84615H111.215V0Z" fill="#FFE9EC"/>
<path d="M102.809 39.2308H124.578V30.2949H111.215V7.84616H102.809V39.2308Z" fill="#FFE9EC"/>
<path d="M76.7295 0V39.2307H98.4982V30.2949H91.6013H85.3507V23.1026H91.6013V15.6923H85.3507V8.28205H98.4982V0H76.7295Z" fill="#FFE9EC"/>
<path d="M0.924316 50.5142V43.1579H1.75172V44.288C2.31049 43.4548 3.01969 43.0384 3.87934 43.0384C4.58854 43.0384 5.2082 43.3064 5.73831 43.8425C6.26843 44.3712 6.53348 45.0812 6.53348 45.9722C6.53348 46.8487 6.26843 47.5549 5.73831 48.0911C5.2082 48.627 4.58854 48.8951 3.87934 48.8951C3.00536 48.8951 2.29616 48.4966 1.75172 47.6999V50.5142H0.924316ZM3.7289 48.1454C4.28767 48.1454 4.75331 47.9498 5.12582 47.5586C5.49832 47.1601 5.68459 46.6277 5.68459 45.9613C5.68459 45.3166 5.49475 44.795 5.11507 44.3966C4.73539 43.9909 4.27333 43.7881 3.7289 43.7881C3.19162 43.7881 2.72241 43.9946 2.32124 44.4075C1.92006 44.8204 1.71949 45.342 1.71949 45.9722C1.71949 46.6024 1.92006 47.124 2.32124 47.5369C2.72241 47.9424 3.19162 48.1454 3.7289 48.1454ZM8.16748 48.7756V43.1579H8.99489V47.6021L12.2938 43.1579H13.0997V48.7756H12.2723V44.3314L8.96265 48.7756H8.16748ZM16.397 48.7756V43.8968H14.4091V43.1579H19.2231V43.8968H17.2352V48.7756H16.397ZM20.534 48.7756V43.1579H21.3185L23.3924 46.1135L25.4662 43.1579H26.2614V48.7756H25.4233V44.4944L23.3709 47.3413L21.34 44.4944V48.7756H20.534ZM36.3395 50.1773V48.7756H31.547V43.1579H32.3744V48.0367H35.4906V43.1579H36.318V48.0367H37.1562L37.0272 50.1773H36.3395ZM38.402 48.7756V43.1579H39.2294V47.6021L42.5282 43.1579H43.3342V48.7756H42.5067V44.3314L39.1971 48.7756H38.402ZM48.6301 50.5142V48.3192C48.1859 48.7031 47.7239 48.8951 47.244 48.8951C46.5705 48.8951 46.0261 48.6344 45.6106 48.1128C45.195 47.5839 44.9874 46.8632 44.9874 45.9505C44.9874 45.0521 45.195 44.3423 45.6106 43.8207C46.0261 43.2992 46.5705 43.0384 47.244 43.0384C47.7239 43.0384 48.1859 43.2412 48.6301 43.6469V41.1694H49.4683V43.6469C49.9123 43.2412 50.3744 43.0384 50.8545 43.0384C51.5349 43.0384 52.0829 43.3027 52.4985 43.8316C52.914 44.3532 53.1218 45.0666 53.1218 45.9722C53.1218 46.8704 52.9103 47.5839 52.4878 48.1128C52.0722 48.6344 51.5278 48.8951 50.8545 48.8951C50.5463 48.8951 50.2921 48.848 50.0915 48.7539C49.8981 48.6524 49.6903 48.5075 49.4683 48.3192V50.5142H48.6301ZM47.4159 48.1563C47.8814 48.1563 48.2863 47.9715 48.6301 47.6021V44.3423C48.2863 43.9729 47.8814 43.7881 47.4159 43.7881C46.9001 43.7881 46.5096 43.9837 46.2446 44.3749C45.9795 44.7661 45.847 45.3057 45.847 45.9939C45.847 47.4354 46.3699 48.1563 47.4159 48.1563ZM50.6933 48.1563C51.7391 48.1563 52.2621 47.4282 52.2621 45.9722C52.2621 45.2911 52.1295 44.7587 51.8645 44.3749C51.5994 43.9837 51.2091 43.7881 50.6933 43.7881C50.2276 43.7881 49.8193 43.9729 49.4683 44.3423V47.6021C49.8193 47.9715 50.2276 48.1563 50.6933 48.1563ZM54.7771 50.5142V43.1579H55.6045V44.288C56.1633 43.4548 56.8725 43.0384 57.7321 43.0384C58.4413 43.0384 59.0609 43.3064 59.5911 43.8425C60.1211 44.3712 60.3863 45.0812 60.3863 45.9722C60.3863 46.8487 60.1211 47.5549 59.5911 48.0911C59.0609 48.627 58.4413 48.8951 57.7321 48.8951C56.8581 48.8951 56.1489 48.4966 55.6045 47.6999V50.5142H54.7771ZM57.5817 48.1454C58.1404 48.1454 58.606 47.9498 58.9786 47.5586C59.3511 47.1601 59.5374 46.6277 59.5374 45.9613C59.5374 45.3166 59.3474 44.795 58.9679 44.3966C58.5881 43.9909 58.1261 43.7881 57.5817 43.7881C57.0444 43.7881 56.5751 43.9946 56.174 44.4075C55.7728 44.8204 55.5723 45.342 55.5723 45.9722C55.5723 46.6024 55.7728 47.124 56.174 47.5369C56.5751 47.9424 57.0444 48.1454 57.5817 48.1454ZM66.6301 48.0476C66.0714 48.6198 65.38 48.906 64.5562 48.906C63.7323 48.906 63.0446 48.6198 62.4931 48.0476C61.9485 47.4752 61.6764 46.7835 61.6764 45.9722C61.6764 45.1681 61.9522 44.4799 62.5038 43.9077C63.0626 43.3281 63.7538 43.0384 64.5777 43.0384C65.4015 43.0384 66.0892 43.3244 66.6409 43.8968C67.1924 44.469 67.4683 45.1608 67.4683 45.9722C67.4683 46.7763 67.1889 47.468 66.6301 48.0476ZM64.5777 48.1563C65.1722 48.1563 65.6594 47.9461 66.0391 47.526C66.4259 47.1058 66.6194 46.5879 66.6194 45.9722C66.6194 45.3637 66.4187 44.8456 66.0176 44.4184C65.6235 43.9909 65.1365 43.7773 64.5562 43.7773C63.9616 43.7773 63.4744 43.9909 63.0948 44.4184C62.7151 44.8385 62.5253 45.3563 62.5253 45.9722C62.5253 46.5807 62.7222 47.0986 63.1163 47.526C63.5103 47.9461 63.9975 48.1563 64.5777 48.1563ZM69.0745 48.7756V43.1579H71.7609C72.3124 43.1579 72.753 43.2846 73.0826 43.5382C73.4121 43.7916 73.5769 44.1322 73.5769 44.5596C73.5769 45.1608 73.2688 45.5919 72.6528 45.8527C73.4695 46.0772 73.8778 46.5407 73.8778 47.2435C73.8778 47.7143 73.6951 48.0874 73.3298 48.3627C72.9644 48.6379 72.4736 48.7756 71.8576 48.7756H69.0745ZM69.902 48.0585H71.7502C72.1441 48.0585 72.4557 47.975 72.6851 47.8085C72.9142 47.6419 73.0289 47.41 73.0289 47.1131C73.0289 46.8378 72.9071 46.6242 72.6636 46.472C72.4272 46.3199 72.0868 46.2438 71.6427 46.2438H69.902V48.0585ZM69.902 45.5702H71.6105C71.9544 45.5702 72.2265 45.4941 72.4272 45.342C72.6348 45.1825 72.7388 44.958 72.7388 44.6683C72.7388 44.4292 72.6421 44.2371 72.4486 44.0924C72.2552 43.9474 71.9829 43.8751 71.632 43.8751H69.902V45.5702ZM80.088 48.0476C79.5293 48.6198 78.8379 48.906 78.0141 48.906C77.1902 48.906 76.5025 48.6198 75.951 48.0476C75.4064 47.4752 75.1343 46.7835 75.1343 45.9722C75.1343 45.1681 75.4101 44.4799 75.9617 43.9077C76.5205 43.3281 77.2117 43.0384 78.0356 43.0384C78.8594 43.0384 79.5471 43.3244 80.0988 43.8968C80.6503 44.469 80.9262 45.1608 80.9262 45.9722C80.9262 46.7763 80.6468 47.468 80.088 48.0476ZM78.0356 48.1563C78.6301 48.1563 79.1173 47.9461 79.497 47.526C79.8839 47.1058 80.0773 46.5879 80.0773 45.9722C80.0773 45.3637 79.8766 44.8456 79.4755 44.4184C79.0814 43.9909 78.5944 43.7773 78.0141 43.7773C77.4195 43.7773 76.9323 43.9909 76.5527 44.4184C76.173 44.8385 75.9832 45.3563 75.9832 45.9722C75.9832 46.5807 76.1801 47.0986 76.5742 47.526C76.9682 47.9461 77.4554 48.1563 78.0356 48.1563ZM82.5325 48.7756V43.1579H86.3041V43.8968H83.3599V48.7756H82.5325ZM92.2237 48.0476C91.6649 48.6198 90.9736 48.906 90.1498 48.906C89.3261 48.906 88.6383 48.6198 88.0867 48.0476C87.5423 47.4752 87.27 46.7835 87.27 45.9722C87.27 45.1681 87.5458 44.4799 88.0974 43.9077C88.6562 43.3281 89.3476 43.0384 90.1713 43.0384C90.9951 43.0384 91.6828 43.3244 92.2345 43.8968C92.7861 44.469 93.0619 45.1608 93.0619 45.9722C93.0619 46.7763 92.7825 47.468 92.2237 48.0476ZM90.1713 48.1563C90.766 48.1563 91.253 47.9461 91.6327 47.526C92.0196 47.1058 92.213 46.5879 92.213 45.9722C92.213 45.3637 92.0124 44.8456 91.6112 44.4184C91.2173 43.9909 90.7301 43.7773 90.1498 43.7773C89.5552 43.7773 89.0682 43.9909 88.6884 44.4184C88.3087 44.8385 88.1189 45.3563 88.1189 45.9722C88.1189 46.5807 88.316 47.0986 88.7099 47.526C89.1039 47.9461 89.5911 48.1563 90.1713 48.1563ZM97.9972 48.7756V43.1579H98.7816L100.855 46.1135L102.929 43.1579H103.725V48.7756H102.886V44.4944L100.834 47.3413L98.8031 44.4944V48.7756H97.9972ZM105.681 48.7756V43.1579H106.509V47.6021L109.807 43.1579H110.613V48.7756H109.786V44.3314L106.476 48.7756H105.681ZM112.567 50.5142V43.1579H113.395V44.288C113.954 43.4548 114.663 43.0384 115.522 43.0384C116.232 43.0384 116.851 43.3064 117.381 43.8425C117.912 44.3712 118.177 45.0812 118.177 45.9722C118.177 46.8487 117.912 47.5549 117.381 48.0911C116.851 48.627 116.232 48.8951 115.522 48.8951C114.648 48.8951 113.939 48.4966 113.395 47.6999V50.5142H112.567ZM115.372 48.1454C115.931 48.1454 116.396 47.9498 116.769 47.5586C117.141 47.1601 117.328 46.6277 117.328 45.9613C117.328 45.3166 117.138 44.795 116.758 44.3966C116.378 43.9909 115.916 43.7881 115.372 43.7881C114.835 43.7881 114.366 43.9946 113.964 44.4075C113.563 44.8204 113.363 45.342 113.363 45.9722C113.363 46.6024 113.563 47.124 113.964 47.5369C114.366 47.9424 114.835 48.1454 115.372 48.1454ZM121.465 48.8951C120.9 48.8951 120.412 48.7393 120.004 48.4279C119.596 48.1163 119.392 47.6817 119.392 47.124C119.392 46.5372 119.606 46.0844 120.036 45.7657C120.466 45.4469 121.043 45.2876 121.766 45.2876C122.339 45.2876 122.905 45.3672 123.464 45.5267V45.3528C123.464 44.8602 123.321 44.4836 123.034 44.2228C122.748 43.962 122.343 43.8316 121.82 43.8316C121.276 43.8316 120.713 43.9655 120.133 44.2336L119.886 43.5491C120.574 43.2303 121.247 43.071 121.906 43.071C122.694 43.071 123.292 43.2774 123.701 43.6903C124.087 44.0815 124.281 44.632 124.281 45.342V48.7756H123.464V47.9389C122.97 48.5763 122.304 48.8951 121.465 48.8951ZM121.627 48.2215C122.142 48.2215 122.579 48.0802 122.938 47.7977C123.296 47.5152 123.475 47.1529 123.475 46.7111V46.1895C122.93 46.03 122.39 45.9505 121.852 45.9505C121.344 45.9505 120.946 46.0554 120.66 46.2656C120.373 46.4683 120.23 46.7472 120.23 47.1023C120.23 47.4426 120.362 47.7143 120.627 47.9172C120.9 48.12 121.233 48.2215 121.627 48.2215Z" fill="#FFE9EC"/>
</svg>
